IKResults
version=1
nRows=6
nColumns=67
inDegrees=yes

Units are S.I. units (second, meters, Newtons, ...)
Angles are in degrees.

endheader
time	pelvis_tilt	pelvis_list	pelvis_rotation	pelvis_tx	pelvis_ty	pelvis_tz	hip_flexion_r	hip_adduction_r	hip_rotation_r	knee_angle_r	knee_rot_r	knee_adduc_r	ankle_angle_r	ankle_rot_r	ankle_add_r	subtalar_angle_r	mtp_angle_r	mtp_rot_r	mtp_add_r	hip_flexion_l	hip_adduction_l	hip_rotation_l	knee_angle_l	knee_rot_l	knee_adduc_l	ankle_angle_l	ankle_rot_l	ankle_add_l	subtalar_angle_l	mtp_angle_l	mtp_rot_l	mtp_add_l	lumbar_extension	lumbar_bending	lumbar_rotation	neck_flexion	neck_lateral_bending	neck_rotation	arm_flex_r	arm_add_r	arm_rot_r	elbow_flex_r	elbow_rot_r	elbow_add_r	pro_sup_r	wrist_flex_r	wrist_adduc_r	wrist_rot_r	wrist_dev_r	hand_finger_flex_r	hand_finger_adduc_r	hand_finger_rot_r	arm_flex_l	arm_add_l	arm_rot_l	elbow_flex_l	elbow_rot_l	elbow_add_l	pro_sup_l	wrist_flex_l	wrist_adduc_l	wrist_rot_l	wrist_dev_l	hand_finger_flex_l	hand_finger_adduc_l	hand_finger_rot_l
      0.84500000	     12.61659386	      4.27267238	      0.49616082	     -1.71851306	      0.75025133	      0.92062765	    -28.24098762	     -0.11208713	     -1.29131994	     -5.74272007	     -5.00000000	      0.61421406	     11.86702274	     -0.97063816	      5.00000000	     -3.31925339	     12.29749594	     -1.99528447	     -0.62811398	     11.81193777	      5.44744069	      0.00114879	     -6.59414384	      5.00000000	      1.64303105	      2.83514385	      5.00000000	      4.80831130	      2.60357891	     34.48871723	      2.00000000	      0.27936219	    -31.20875441	     -5.53692523	      1.42946741	      0.00000000	      0.00000000	      0.00000000	      0.00000000	      0.00000000	      0.00000000	      0.00000000	      0.00000000	      0.00000000	     -0.00042092	      0.00000000	      0.00000000	      0.00000000	      0.00000000	      0.00000000	      0.00000000	      0.00000000	      0.00000000	      0.00000000	      0.00000000	      0.00000000	      0.00000000	      0.00000000	      0.00000000	      0.00000000	      0.00000000	      0.00000000	      0.00000000	      0.00000000	      0.00000000	      0.00000000
      0.85000000	     13.98802705	      4.19181780	     -0.58923812	     -1.71184957	      0.74972496	      0.92140751	    -30.17754053	     -0.63722253	     -0.62160093	     -5.85327710	     -5.00000000	      0.77410432	     12.43754086	     -0.70656955	      4.94226620	     -2.98755100	     12.48407431	     -2.00000000	     -0.54408184	     10.31972720	      5.20478105	     -2.07944698	     -4.97274042	      5.00000000	      1.91433113	      2.71775186	      4.97606367	      3.45921155	      3.50160644	     34.09711982	      2.00000000	      0.40554428	    -32.81886497	     -6.00696672	      2.40160184	      0.00000000	      0.00000000	      0.00000000	      0.00000000	      0.00000000	      0.00000000	      0.00000000	      0.00000000	      0.00000000	     -0.00042092	      0.00000000	      0.00000000	      0.00000000	      0.00000000	      0.00000000	      0.00000000	      0.00000000	      0.00000000	      0.00000000	      0.00000000	      0.00000000	      0.00000000	      0.00000000	      0.00000000	      0.00000000	      0.00000000	      0.00000000	      0.00000000	      0.00000000	      0.00000000	      0.00000000
      0.85500000	     14.03988389	      3.92823608	     -0.60264923	     -1.70508466	      0.74775611	      0.92125801	    -30.75846197	     -0.46393530	     -0.47181542	     -5.99648043	     -5.00000000	      0.82143002	     12.54353955	     -0.54591149	      5.00000000	     -2.85867007	     12.51009984	     -1.99580745	     -0.53333067	     10.67270869	      4.89587743	     -2.38346639	     -4.26071692	      5.00000000	      1.94011766	      2.84616712	      5.00000000	      3.29078526	      3.55412673	     34.05481198	      2.00000000	      0.41953346	    -32.89260365	     -5.78933593	      2.22354511	      0.00000000	      0.00000000	      0.00000000	      0.00000000	      0.00000000	      0.00000000	      0.00000000	      0.00000000	      0.00000000	     -0.00042092	      0.00000000	      0.00000000	      0.00000000	      0.00000000	      0.00000000	      0.00000000	      0.00000000	      0.00000000	      0.00000000	      0.00000000	      0.00000000	      0.00000000	      0.00000000	      0.00000000	      0.00000000	      0.00000000	      0.00000000	      0.00000000	      0.00000000	      0.00000000	      0.00000000
      0.86000000	     14.05483103	      3.77935722	     -0.62877480	     -1.69844917	      0.74577198	      0.92126989	    -31.27594390	     -0.40941307	     -0.45016743	     -6.17868288	     -5.00000000	      0.91354005	     12.58814051	     -0.49353781	      5.00000000	     -2.81604719	     12.51731697	     -1.99444982	     -0.53040204	     11.20476202	      4.68894252	     -2.49654491	     -3.94205382	      5.00000000	      1.94888819	      2.90168277	      5.00000000	      3.23510989	      3.55233461	     34.04510401	      2.00000000	      0.42269097	    -33.03193410	     -5.87091566	      2.23062129	      0.00000000	      0.00000000	      0.00000000	      0.00000000	      0.00000000	      0.00000000	      0.00000000	      0.00000000	      0.00000000	     -0.00042092	      0.00000000	      0.00000000	      0.00000000	      0.00000000	      0.00000000	      0.00000000	      0.00000000	      0.00000000	      0.00000000	      0.00000000	      0.00000000	      0.00000000	      0.00000000	      0.00000000	      0.00000000	      0.00000000	      0.00000000	      0.00000000	      0.00000000	      0.00000000	      0.00000000
      0.86500000	     14.60445666	      3.28890946	     -1.27278661	     -1.69196865	      0.74439284	      0.92169907	    -32.21681753	     -0.31671509	      0.00317802	     -6.49608019	     -5.00000000	      0.81164742	     13.19862964	      0.18058994	      5.00000000	     -2.29010669	     12.62591499	     -1.97672275	     -0.48577601	     11.21450795	      3.83718171	     -3.56157545	     -4.00671897	      5.00000000	      1.62167728	      3.53761672	      5.00000000	      2.29001110	      3.96788270	     33.91045727	      2.00000000	      0.46813721	    -33.71131930	     -5.63210285	      2.91189714	      0.00000000	      0.00000000	      0.00000000	      0.00000000	      0.00000000	      0.00000000	      0.00000000	      0.00000000	      0.00000000	     -0.00042092	      0.00000000	      0.00000000	      0.00000000	      0.00000000	      0.00000000	      0.00000000	      0.00000000	      0.00000000	      0.00000000	      0.00000000	      0.00000000	      0.00000000	      0.00000000	      0.00000000	      0.00000000	      0.00000000	      0.00000000	      0.00000000	      0.00000000	      0.00000000	      0.00000000
      0.87000000	     14.72062360	      3.18360865	     -1.39030797	     -1.68506391	      0.74259489	      0.92151671	    -32.93697128	     -0.48193569	      0.01523216	     -6.54236722	     -5.00000000	      1.06921847	     13.28318728	      0.28662778	      5.00000000	     -2.19522445	     12.65220317	     -1.97399002	     -0.47465346	     11.79315456	      3.63743511	     -3.97487870	     -4.33795211	      5.00000000	      1.54453630	      3.54077655	      5.00000000	      2.12089970	      3.99772017	     33.87398018	      2.00000000	      0.48083188	    -33.87553912	     -5.67561283	      3.03863802	      0.00000000	      0.00000000	      0.00000000	      0.00000000	      0.00000000	      0.00000000	      0.00000000	      0.00000000	      0.00000000	     -0.00042092	      0.00000000	      0.00000000	      0.00000000	      0.00000000	      0.00000000	      0.00000000	      0.00000000	      0.00000000	      0.00000000	      0.00000000	      0.00000000	      0.00000000	      0.00000000	      0.00000000	      0.00000000	      0.00000000	      0.00000000	      0.00000000	      0.00000000	      0.00000000	      0.00000000
